<svg width="114" height="24" viewBox="0 0 114 24" fill="none" xmlns="http://www.w3.org/2000/svg">
<rect x="0.000610352" y="11.4626" width="32" height="1.28995" rx="0.644977" fill="#E3B873"/>
<rect x="82.0006" y="11.4626" width="32" height="1.28995" rx="0.644977" fill="#E3B873"/>
<path d="M67.4056 18.2692C66.8241 17.9272 66.1529 17.7434 65.475 17.7135C62.92 16.315 61.2463 15.2654 60.2692 14.4487L57.2675 11.9398L59.089 10.2356C59.4342 10.3985 59.805 10.5058 60.1759 10.5501C60.4557 10.5891 60.6423 10.5891 60.8289 10.5891C61.2021 10.5891 61.2953 10.5891 61.6685 10.862C61.4819 10.9789 61.3886 11.1739 61.3886 11.3687C61.3886 11.5636 61.4819 11.7976 61.6685 11.9535L63.301 13.318C63.5342 13.5519 63.9073 13.6689 64.2805 13.6689C64.6537 13.6689 65.0268 13.5519 65.26 13.2791L68.5717 10.5111C68.8516 10.3161 68.9915 10.0043 68.9915 9.6924C68.9915 9.3805 68.8516 9.10762 68.5717 8.87371L66.9392 7.50921C66.7526 7.35328 66.5194 7.27529 66.2861 7.27529C66.0529 7.27529 65.8197 7.39225 65.6331 7.50921C65.26 7.23632 65.26 7.15834 65.26 6.84644C65.26 6.69052 65.26 6.49557 65.1667 6.26166C65.0734 5.71585 64.7469 5.17009 64.2338 4.74124L62.5546 3.33777C61.5751 2.51908 61.1087 2.12924 59.8493 1.66142C57.144 0.608815 54.3921 0.803757 50.3807 2.32418C50.1475 2.40217 50.0542 2.55809 50.1009 2.75304C50.1475 2.94798 50.3341 3.06493 50.5673 3.06493H51.1736C53.2259 3.06493 54.2987 3.06493 56.1645 4.62433C56.9814 5.30715 57.005 6.35413 56.273 7.12444C56.1744 7.13687 56.0993 7.17387 56.0245 7.23633L53.9526 9.1692L52.3864 7.86012C50.6649 6.42129 49.4541 5.05999 48.5222 3.54418C48.4733 2.77716 48.105 2.05952 47.4422 1.50554C46.6493 0.842818 45.5299 0.530921 44.4104 0.608907C44.2705 0.647877 44.1306 0.725862 44.0839 0.803848C43.9906 0.920804 43.9906 1.07673 44.0839 1.19369L45.3899 3.14296C45.1101 3.64976 44.4571 3.96165 43.8041 3.92268L42.4514 2.05135C42.4048 1.93439 42.2182 1.8564 42.0783 1.8564C41.9383 1.81743 41.7984 1.89537 41.7051 2.01233C40.5856 3.4158 41.0054 5.28709 42.6846 6.26171C43.2631 6.60709 43.9149 6.79916 44.575 6.83854C44.5823 6.84114 44.5893 6.84434 44.5969 6.84649C46.416 7.62621 48.0485 8.63979 49.7743 10.0823L51.4802 11.4757L41.5652 20.7253C41.192 21.0372 41.0055 21.466 41.0055 21.8949C41.0055 22.3237 41.192 22.7136 41.5652 23.0254L42.2182 23.5713C42.5914 23.8441 43.0578 24.0001 43.5242 24.0001C43.9906 24.0001 44.5037 23.8442 44.8769 23.5323L54.7806 14.2666L57.6571 16.6709C58.6357 17.4888 59.8937 18.9293 61.5705 21.0313C61.6306 21.7816 61.998 22.4822 62.648 23.0254C63.3476 23.6102 64.2805 23.9221 65.26 23.9221C65.3999 23.9221 65.5399 23.9221 65.6332 23.9221C65.7731 23.9221 65.913 23.8441 66.0063 23.7272C66.0996 23.6102 66.0996 23.4543 66.0063 23.3373L64.6537 21.4271C64.9802 20.9203 65.5866 20.6084 66.2862 20.6474L67.5922 22.5187C67.6388 22.6356 67.8254 22.7136 67.9654 22.7136C68.1519 22.6746 68.2918 22.6356 68.3851 22.5187C69.5045 21.1151 69.0381 19.2438 67.4056 18.2692ZM56.7709 4.00062C55.2783 2.7921 54.1589 2.40221 52.8995 2.28526C55.5582 1.58352 57.5172 1.62249 59.4762 2.36324C60.5957 2.75308 60.9688 3.06498 61.9483 3.88367L63.6275 5.28714C64.0006 5.59904 64.2338 5.98887 64.2805 6.37871C64.3271 6.57365 64.3271 6.72958 64.3271 6.84653C64.3271 7.27539 64.3738 7.58724 64.9335 8.05506C65.12 8.21099 65.3999 8.28897 65.6331 8.28897C65.913 8.28897 66.1462 8.21099 66.2861 8.05506L67.9187 9.41956C68.012 9.49755 68.0586 9.57549 68.0586 9.69244C68.0586 9.8094 68.012 9.88738 67.9187 9.96532L64.607 12.7333C64.4204 12.8892 64.1406 12.8892 63.954 12.7333L62.3214 11.3688C62.508 11.2518 62.6013 11.0569 62.5547 10.823C62.5547 10.628 62.4614 10.3941 62.2748 10.2382C61.7151 9.77038 61.3419 9.73141 60.8289 9.73141C60.689 9.73141 60.5024 9.73141 60.2692 9.69244C59.7561 9.65347 59.3363 9.45853 58.9632 9.14663L56.9575 7.47028C57.9836 6.41773 57.8904 4.93627 56.7709 4.00062ZM42.1249 3.06498L43.1044 4.46845C43.1977 4.5854 43.3377 4.66339 43.4776 4.66339H43.7108C44.7837 4.70236 45.7632 4.23454 46.2296 3.45486L46.3229 3.25992C46.4162 3.14296 46.4162 3.02601 46.3229 2.90905L45.2967 1.4276C45.8564 1.50558 46.3695 1.73949 46.7893 2.09036C47.2702 2.52579 47.5781 3.07649 47.5963 3.66803C47.5873 3.69805 47.5822 3.73035 47.5822 3.76676C47.5822 3.94731 47.5561 4.12343 47.5079 4.2932C47.3319 4.85769 46.91 5.34986 46.3228 5.67707C45.3899 6.18386 44.1306 6.18386 43.1977 5.6381C42.2182 5.05323 41.7984 4.00062 42.1249 3.06498ZM50.4274 9.53652C49.0281 8.32799 47.6288 7.39234 46.1362 6.65159C46.3694 6.57361 46.6493 6.45665 46.8825 6.33969C47.5821 5.94986 48.0485 5.44302 48.3284 4.81927C49.2146 6.06681 50.3341 7.23637 51.7333 8.40593L53.3354 9.74498L52.0791 10.9171L50.4274 9.53652ZM44.2239 22.9475C43.8507 23.2594 43.2444 23.2983 42.8712 22.9864L42.2182 22.4796C42.0316 22.3237 41.9383 22.1288 41.9383 21.9338C41.9383 21.6999 42.0316 21.505 42.2648 21.3101L42.529 21.0631L43.1977 21.622C43.291 21.7 43.3842 21.7389 43.5242 21.7389C43.6641 21.7389 43.7574 21.7 43.8507 21.622C44.0372 21.4661 44.0372 21.2321 43.8507 21.0762L43.1453 20.4866L43.7617 19.9102L44.5037 20.5304C44.597 20.6083 44.6902 20.6473 44.8302 20.6473C44.9701 20.6473 45.0634 20.6083 45.1567 20.5304C45.3432 20.3744 45.3432 20.1405 45.1567 19.9846L44.3782 19.3338L56.3757 8.11464L58.3348 9.75202L56.4099 11.552C56.3549 11.5715 56.3063 11.6012 56.2578 11.6417L54.3921 13.3961C54.3388 13.4406 54.3013 13.4916 54.2785 13.5452L44.2239 22.9475ZM55.4188 13.6694L56.6953 12.4752L59.7094 14.9945C60.549 15.7352 61.9949 16.6708 64.0938 17.8404C63.814 17.9184 63.5341 18.0353 63.2543 18.1912C62.6756 18.4935 62.2657 18.9133 61.9801 19.3772C61.9759 19.3839 61.972 19.3906 61.9679 19.3973C61.951 19.4252 61.9344 19.4533 61.9184 19.4815C61.8954 19.5215 61.8735 19.5619 61.8526 19.6028C61.8382 19.6304 61.824 19.658 61.8105 19.6859C61.8086 19.6899 61.8067 19.6939 61.8048 19.6979C61.7901 19.7284 61.7755 19.759 61.7617 19.7897C61.4968 19.4649 61.2419 19.1584 60.9967 18.8696L61.6218 18.3472C61.8083 18.1913 61.8083 17.9574 61.6218 17.8014C61.4352 17.6455 61.1554 17.6455 60.9688 17.8014L60.4488 18.236C60.255 18.0162 60.0677 17.8088 59.8872 17.6139L60.3158 17.2556C60.5023 17.0997 60.5023 16.8658 60.3158 16.7098C60.1292 16.5539 59.8494 16.5539 59.6628 16.7098L59.3067 17.0074C58.9639 16.662 58.6477 16.3681 58.3568 16.125L55.4188 13.6694ZM67.9186 21.466L66.9391 20.0625C66.8458 19.9456 66.7059 19.8676 66.566 19.8676H66.3327C65.2599 19.7896 64.2804 20.2964 63.814 21.0761L63.7207 21.2711C63.6274 21.388 63.6274 21.505 63.7207 21.6219L64.7468 23.1034C64.1871 23.0254 63.674 22.7915 63.2542 22.4406C62.7824 22.0134 62.4775 21.4753 62.4488 20.8966C62.4568 20.8681 62.4613 20.8375 62.4613 20.8032C62.4613 20.3094 62.6488 19.847 62.9758 19.4553C63.1766 19.2217 63.4279 19.0172 63.7206 18.854C64.187 18.5811 64.7001 18.4642 65.2599 18.4642C65.8196 18.4642 66.3793 18.6201 66.8457 18.893C67.8254 19.4778 68.2452 20.5304 67.9186 21.466Z" fill="#E3B873"/>
</svg>
